# xmcd
#
# Track frame offsets:
#	150
#	16411
#	29286
#	45560
#	57913
#	76968
#	94122
#	118380
#	140617
#	162132
#	176821
#	195793
#	211343
#	237109
#	256461
#	273398
#	289744
#	301908
#	318011
#
# Disc length: 4444
#
# Revision: 8
# Processed by: cddbd v1.5.1PL0 Copyright (c) Steve Scherf et al.
# Submitted via: CDex 1.40Release
# Normalized: r6:DSETVAR1,TSWAP
#
DISCID=02115a13
DTITLE=Various Artist - FINE
DYEAR=2002
DGENRE=Pop
TTITLE0=Hall&Oates - Private Eyes
TTITLE1=Nilsson - Everybody's Talkin'
TTITLE2=BayCityRollers - I Only Want To Be With You
TTITLE3=Sylvie Vartan - Irresistiblement
TTITLE4=Culture Club - Karma Chameleon
TTITLE5=a-ha - Take On Me
TTITLE6=Eurythmics - There Must Be An Angel
TTITLE7=Starship - We Built This City
TTITLE8=Thompson Twins - Hold Me Now
TTITLE9=Rick Springfield - Jessie's Girl
TTITLE10=The Alan Parsons Project - Don't Answer Me
TTITLE11=Rick Astley - Together Forever
TTITLE12=Air Supply - Making Love Out Of Nothing At All
TTITLE13=Poco - Call It Love
TTITLE14=Eric Carmen - Never Gonna Fall In Love Again
TTITLE15=Fairground Attraction - Perfect
TTITLE16=The Tokens - The Lion Sleeps Tonight
TTITLE17=Silver - Wham Bam
TTITLE18=Tony Orlando and Dawn - Tie A Yellow Ribbon Round The Ole Oak Tree
EXTD=YEAR: 2002 ID3G: 13
EXTT0=
EXTT1=
EXTT2=
EXTT3=
EXTT4=
EXTT5=
EXTT6=
EXTT7=
EXTT8=
EXTT9=
EXTT10=
EXTT11=
EXTT12=
EXTT13=
EXTT14=
EXTT15=
EXTT16=
EXTT17=
EXTT18=
PLAYORDER=
